<svg xmlns="http://www.w3.org/2000/svg" style="display: none;">

<symbol id="location-arrow" viewBox="0 0 640 640">
    <path d="M541.9 139.5C546.4 127.7 543.6 114.3 534.7 105.4C525.8 96.5 512.4 93.6 500.6 98.2L84.6 258.2C71.9 263 63.7 275.2 64 288.7C64.3 302.2 73.1 314.1 85.9 318.3L262.7 377.2L321.6 554C325.9 566.8 337.7 575.6 351.2 575.9C364.7 576.2 376.9 568 381.8 555.4L541.8 139.4z"/>
</symbol>

<symbol id="hand-sparkles" viewBox="0 0 640 640">
    <path d="M320 64C337.7 64 352 78.3 352 96L352 304C352 312.8 359.2 320 368 320C376.8 320 384 312.8 384 304L384 128C384 110.3 398.3 96 416 96C433.7 96 448 110.3 448 128L448 304C448 312.8 455.2 320 464 320C472.8 320 480 312.8 480 304L480 192C480 174.3 494.3 160 512 160C529.7 160 544 174.3 544 192L544 370.2C524.8 375.6 509.3 390.6 503.6 410.5L497.1 433.2L474.4 439.7C449.2 446.9 431.9 469.9 431.9 496.1C431.9 518.2 444.3 538.1 463.3 548C435.8 565.8 403.1 576.1 367.9 576.1L348.7 576.1C289.1 576.1 231.8 553.2 188.7 512.1L76.4 405C60.4 389.8 59.8 364.4 75 348.4C90.2 332.4 115.6 331.8 131.6 347L192.1 404.6C192.1 403.1 192 401.5 192 400L192 128C192 110.3 206.3 96 224 96C241.7 96 256 110.3 256 128L256 304C256 312.8 263.2 320 272 320C280.8 320 288 312.8 288 304L288 96C288 78.3 302.3 64 320 64zM312.7 390.6C311.6 386.7 308 384 304 384C300 384 296.4 386.7 295.3 390.6L288 416L262.6 423.3C258.7 424.4 256 428 256 432C256 436 258.7 439.6 262.6 440.7L288 448L295.3 473.4C296.4 477.3 300 480 304 480C308 480 311.6 477.3 312.7 473.4L320 448L345.4 440.7C349.3 439.6 352 436 352 432C352 428 349.3 424.4 345.4 423.3L320 416L312.7 390.6zM104 184L152.3 197.8C156.9 199.1 160 203.3 160 208C160 212.7 156.9 216.9 152.3 218.2L104 232L90.2 280.3C88.9 284.9 84.7 288 80 288C75.3 288 71.1 284.9 69.8 280.3L56 232L7.7 218.2C3.1 216.9 0 212.7 0 208C0 203.3 3.1 199.1 7.7 197.8L56 184L69.8 135.7C71.1 131.1 75.3 128 80 128C84.7 128 88.9 131.1 90.2 135.7L104 184zM584 472L632.3 485.8C636.9 487.1 640 491.3 640 496C640 500.7 636.9 504.9 632.3 506.2L584 520L570.2 568.3C568.9 572.9 564.7 576 560 576C555.3 576 551.1 572.9 549.8 568.3L536 520L487.7 506.2C483.1 504.9 480 500.7 480 496C480 491.3 483.1 487.1 487.7 485.8L536 472L549.8 423.7C551.1 419.1 555.3 416 560 416C564.7 416 568.9 419.1 570.2 423.7L584 472z"/>
</symbol>

<symbol id="map-location" viewBox="0 0 640 640">
    <path d="M576 112C576 100.9 570.3 90.6 560.8 84.8C551.3 79 539.6 78.4 529.7 83.4L413.5 141.5L234.1 81.6C226 78.9 217.3 79.5 209.7 83.3L81.7 147.3C70.8 152.8 64 163.9 64 176L64 528C64 539.1 69.7 549.4 79.2 555.2C88.7 561 100.4 561.6 110.3 556.6L226.4 498.5L399.7 556.3C395.4 549.9 391.2 543.2 387.1 536.4C376.1 518.1 365.2 497.1 357.1 474.6L255.9 440.9L255.9 156.4L383.9 199.1L383.9 298.4C414.9 262.6 460.9 240 511.9 240C534.5 240 556.1 244.4 575.9 252.5L576 112zM392 405.9C392 474.8 456.1 556.3 490.6 595.2C502.2 608.2 521.9 608.2 533.5 595.2C568 556.3 632.1 474.8 632.1 405.9C632.1 340.8 578.4 288 512.1 288C445.8 288 392 340.8 392 405.9z"/>
</symbol>

<symbol id="bed" viewBox="0 0 640 640">
    <path d="M64 96C81.7 96 96 110.3 96 128L96 352L320 352L320 224C320 206.3 334.3 192 352 192L512 192C565 192 608 235 608 288L608 512C608 529.7 593.7 544 576 544C558.3 544 544 529.7 544 512L544 448L96 448L96 512C96 529.7 81.7 544 64 544C46.3 544 32 529.7 32 512L32 128C32 110.3 46.3 96 64 96zM144 256C144 220.7 172.7 192 208 192C243.3 192 272 220.7 272 256C272 291.3 243.3 320 208 320C172.7 320 144 291.3 144 256z"/>
</symbol>

<symbol id="mask" viewBox="0 0 640 640">
    <path d="M320 128C96 128 32 224 32 336C32 448 112 512 208 512L216.4 512C240.6 512 262.8 498.3 273.6 476.6L296.8 430.3C301.2 421.5 310.1 416 320 416C329.9 416 338.8 421.5 343.2 430.3L366.4 476.6C377.2 498.3 399.4 512 423.6 512L432 512C528 512 608 448 608 336C608 224 544 128 320 128zM128 320C128 284.7 156.7 256 192 256C227.3 256 256 284.7 256 320C256 355.3 227.3 384 192 384C156.7 384 128 355.3 128 320zM448 256C483.3 256 512 284.7 512 320C512 355.3 483.3 384 448 384C412.7 384 384 355.3 384 320C384 284.7 412.7 256 448 256z"/>
</symbol>

<symbol id="calendar-xmark" viewBox="0 0 640 640">
    <path d="M224 64C241.7 64 256 78.3 256 96L256 128L384 128L384 96C384 78.3 398.3 64 416 64C433.7 64 448 78.3 448 96L448 128L480 128C515.3 128 544 156.7 544 192L544 480C544 515.3 515.3 544 480 544L160 544C124.7 544 96 515.3 96 480L96 192C96 156.7 124.7 128 160 128L192 128L192 96C192 78.3 206.3 64 224 64zM387.9 284.1C378.5 274.7 363.3 274.7 354 284.1L320.1 318L286.2 284.1C276.8 274.7 261.6 274.7 252.3 284.1C243 293.5 242.9 308.7 252.3 318L286.2 351.9L252.3 385.8C242.9 395.2 242.9 410.4 252.3 419.7C261.7 429 276.9 429.1 286.2 419.7L320.1 385.8L354 419.7C363.4 429.1 378.6 429.1 387.9 419.7C397.2 410.3 397.3 395.1 387.9 385.8L354 351.9L387.9 318C397.3 308.6 397.3 293.4 387.9 284.1z"/>
</symbol>

<symbol id="moon" viewBox="0 0 640 640">
    <path d="M320 64C178.6 64 64 178.6 64 320C64 461.4 178.6 576 320 576C388.8 576 451.3 548.8 497.3 504.6C504.6 497.6 506.7 486.7 502.6 477.5C498.5 468.3 488.9 462.6 478.8 463.4C473.9 463.8 469 464 464 464C362.4 464 280 381.6 280 280C280 207.9 321.5 145.4 382.1 115.2C391.2 110.7 396.4 100.9 395.2 90.8C394 80.7 386.6 72.5 376.7 70.3C358.4 66.2 339.4 64 320 64z"/>
</symbol>

<symbol id="clock" viewBox="0 0 640 640">
    <path d="M320 64C461.4 64 576 178.6 576 320C576 461.4 461.4 576 320 576C178.6 576 64 461.4 64 320C64 178.6 178.6 64 320 64zM296 184L296 320C296 328 300 335.5 306.7 340L402.7 404C413.7 411.4 428.6 408.4 436 397.3C443.4 386.2 440.4 371.4 429.3 364L344 307.2L344 184C344 170.7 333.3 160 320 160C306.7 160 296 170.7 296 184z"/>
</symbol>

<symbol id="instagram" viewBox="0 0 640 640">
    <path d="M320.3 205C256.8 204.8 205.2 256.2 205 319.7C204.8 383.2 256.2 434.8 319.7 435C383.2 435.2 434.8 383.8 435 320.3C435.2 256.8 383.8 205.2 320.3 205zM319.7 245.4C360.9 245.2 394.4 278.5 394.6 319.7C394.8 360.9 361.5 394.4 320.3 394.6C279.1 394.8 245.6 361.5 245.4 320.3C245.2 279.1 278.5 245.6 319.7 245.4zM413.1 200.3C413.1 185.5 425.1 173.5 439.9 173.5C454.7 173.5 466.7 185.5 466.7 200.3C466.7 215.1 454.7 227.1 439.9 227.1C425.1 227.1 413.1 215.1 413.1 200.3zM542.8 227.5C541.1 191.6 532.9 159.8 506.6 133.6C480.4 107.4 448.6 99.2 412.7 97.4C375.7 95.3 264.8 95.3 227.8 97.4C192 99.1 160.2 107.3 133.9 133.5C107.6 159.7 99.5 191.5 97.7 227.4C95.6 264.4 95.6 375.3 97.7 412.3C99.4 448.2 107.6 480 133.9 506.2C160.2 532.4 191.9 540.6 227.8 542.4C264.8 544.5 375.7 544.5 412.7 542.4C448.6 540.7 480.4 532.5 506.6 506.2C532.8 480 541 448.2 542.8 412.3C544.9 375.3 544.9 264.5 542.8 227.5zM495 452C487.2 471.6 472.1 486.7 452.4 494.6C422.9 506.3 352.9 503.6 320.3 503.6C287.7 503.6 217.6 506.2 188.2 494.6C168.6 486.8 153.5 471.7 145.6 452C133.9 422.5 136.6 352.5 136.6 319.9C136.6 287.3 134 217.2 145.6 187.8C153.4 168.2 168.5 153.1 188.2 145.2C217.7 133.5 287.7 136.2 320.3 136.2C352.9 136.2 423 133.6 452.4 145.2C472 153 487.1 168.1 495 187.8C506.7 217.3 504 287.3 504 319.9C504 352.5 506.7 422.6 495 452z"/>
</symbol>

<symbol id="clock-2" viewBox="0 0 640 640">
    <path d="M528 320C528 434.9 434.9 528 320 528C205.1 528 112 434.9 112 320C112 205.1 205.1 112 320 112C434.9 112 528 205.1 528 320zM64 320C64 461.4 178.6 576 320 576C461.4 576 576 461.4 576 320C576 178.6 461.4 64 320 64C178.6 64 64 178.6 64 320zM296 184L296 320C296 328 300 335.5 306.7 340L402.7 404C413.7 411.4 428.6 408.4 436 397.3C443.4 386.2 440.4 371.4 429.3 364L344 307.2L344 184C344 170.7 333.3 160 320 160C306.7 160 296 170.7 296 184z"/>
</symbol>

<symbol id="xmark" viewBox="0 0 640 640">
    <path d="M183.1 137.4C170.6 124.9 150.3 124.9 137.8 137.4C125.3 149.9 125.3 170.2 137.8 182.7L275.2 320L137.9 457.4C125.4 469.9 125.4 490.2 137.9 502.7C150.4 515.2 170.7 515.2 183.2 502.7L320.5 365.3L457.9 502.6C470.4 515.1 490.7 515.1 503.2 502.6C515.7 490.1 515.7 469.8 503.2 457.3L365.8 320L503.1 182.6C515.6 170.1 515.6 149.8 503.1 137.3C490.6 124.8 470.3 124.8 457.8 137.3L320.5 274.7L183.1 137.4z"/>
</symbol>

<symbol id="chevron-right" viewBox="0 0 640 640">
    <path d="M471.1 297.4C483.6 309.9 483.6 330.2 471.1 342.7L279.1 534.7C266.6 547.2 246.3 547.2 233.8 534.7C221.3 522.2 221.3 501.9 233.8 489.4L403.2 320L233.9 150.6C221.4 138.1 221.4 117.8 233.9 105.3C246.4 92.8 266.7 92.8 279.2 105.3L471.2 297.3z"/>
</symbol>

<symbol id="magnifying-glass" viewBox="0 0 640 640">
    <path d="M480 272C480 317.9 465.1 360.3 440 394.7L566.6 521.4C579.1 533.9 579.1 554.2 566.6 566.7C554.1 579.2 533.8 579.2 521.3 566.7L394.7 440C360.3 465.1 317.9 480 272 480C157.1 480 64 386.9 64 272C64 157.1 157.1 64 272 64C386.9 64 480 157.1 480 272zM272 416C351.5 416 416 351.5 416 272C416 192.5 351.5 128 272 128C192.5 128 128 192.5 128 272C128 351.5 192.5 416 272 416z"/>
</symbol>

<symbol id="phone" viewBox="0 0 640 640">
    <path d="M224.2 89C216.3 70.1 195.7 60.1 176.1 65.4L170.6 66.9C106 84.5 50.8 147.1 66.9 223.3C104 398.3 241.7 536 416.7 573.1C493 589.3 555.5 534 573.1 469.4L574.6 463.9C580 444.2 569.9 423.6 551.1 415.8L453.8 375.3C437.3 368.4 418.2 373.2 406.8 387.1L368.2 434.3C297.9 399.4 241.3 341 208.8 269.3L253 233.3C266.9 222 271.6 202.9 264.8 186.3L224.2 89z"/>
</symbol>

</svg>